<?xml version="1.0" encoding="UTF-8" standalone="no"?>
<svg
   width="512"
   height="512"
   version="1.1"
   viewBox="0 0 384 384"
   id="svg106"
   sodipodi:docname="duckduck.svg"
   inkscape:version="1.2.2 (b0a8486541, 2022-12-01)"
   xmlns:inkscape="http://www.inkscape.org/namespaces/inkscape"
   xmlns:sodipodi="http://sodipodi.sourceforge.net/DTD/sodipodi-0.dtd"
   xmlns="http://www.w3.org/2000/svg"
   xmlns:svg="http://www.w3.org/2000/svg">
  <sodipodi:namedview
     id="namedview108"
     pagecolor="#505050"
     bordercolor="#ffffff"
     borderopacity="1"
     inkscape:showpageshadow="0"
     inkscape:pageopacity="0"
     inkscape:pagecheckerboard="1"
     inkscape:deskcolor="#505050"
     showgrid="true"
     inkscape:zoom="1.4580864"
     inkscape:cx="293.19251"
     inkscape:cy="208.14954"
     inkscape:window-width="2880"
     inkscape:window-height="1653"
     inkscape:window-x="0"
     inkscape:window-y="56"
     inkscape:window-maximized="1"
     inkscape:current-layer="svg106">
    <inkscape:grid
       type="xygrid"
       id="grid1742"
       dotted="true"
       spacingx="7.5"
       spacingy="7.5"
       empcolor="#d2c538"
       empopacity="0.83921569"
       color="#7fa342"
       opacity="0.14901961" />
  </sodipodi:namedview>
  <defs
     id="defs26">
    <inkscape:path-effect
       effect="bspline"
       id="path-effect2594"
       is_visible="true"
       lpeversion="1"
       weight="33.333333"
       steps="2"
       helper_size="0"
       apply_no_weight="true"
       apply_with_weight="true"
       only_selected="false" />
    <inkscape:path-effect
       effect="bspline"
       id="path-effect2587"
       is_visible="true"
       lpeversion="1"
       weight="33.333333"
       steps="2"
       helper_size="0"
       apply_no_weight="true"
       apply_with_weight="true"
       only_selected="false" />
    <inkscape:path-effect
       effect="bspline"
       id="path-effect2511"
       is_visible="true"
       lpeversion="1"
       weight="33.333333"
       steps="2"
       helper_size="0"
       apply_no_weight="true"
       apply_with_weight="true"
       only_selected="false" />
    <inkscape:perspective
       sodipodi:type="inkscape:persp3d"
       inkscape:vp_x="-44.677687 : 70.826469 : 1"
       inkscape:vp_y="0 : 683.64079 : 0"
       inkscape:vp_z="625.53854 : 70.826469 : 1"
       inkscape:persp3d-origin="290.43042 : 27.073459 : 1"
       id="perspective341" />
    <clipPath
       id="clipPath4">
      <rect
         width="384"
         height="384"
         id="rect2" />
    </clipPath>
    <clipPath
       id="clipPath8">
      <rect
         width="384"
         height="384"
         id="rect6" />
    </clipPath>
    <clipPath
       id="clipPath12">
      <rect
         width="384"
         height="384"
         id="rect10" />
    </clipPath>
    <clipPath
       id="clipPath16">
      <rect
         width="384"
         height="384"
         id="rect14" />
    </clipPath>
    <clipPath
       id="clipPath20">
      <rect
         width="384"
         height="384"
         id="rect18" />
    </clipPath>
    <clipPath
       id="clipPath24">
      <rect
         width="384"
         height="384"
         id="rect22" />
    </clipPath>
    <inkscape:path-effect
       effect="bspline"
       id="path-effect2511-3"
       is_visible="true"
       lpeversion="1"
       weight="33.333333"
       steps="2"
       helper_size="0"
       apply_no_weight="true"
       apply_with_weight="true"
       only_selected="false" />
    <inkscape:path-effect
       effect="bspline"
       id="path-effect2594-3"
       is_visible="true"
       lpeversion="1"
       weight="33.333333"
       steps="2"
       helper_size="0"
       apply_no_weight="true"
       apply_with_weight="true"
       only_selected="false" />
    <inkscape:path-effect
       effect="bspline"
       id="path-effect2511-3-5"
       is_visible="true"
       lpeversion="1"
       weight="33.333333"
       steps="2"
       helper_size="0"
       apply_no_weight="true"
       apply_with_weight="true"
       only_selected="false" />
    <inkscape:path-effect
       effect="bspline"
       id="path-effect2511-3-9"
       is_visible="true"
       lpeversion="1"
       weight="33.333333"
       steps="2"
       helper_size="0"
       apply_no_weight="true"
       apply_with_weight="true"
       only_selected="false" />
    <inkscape:path-effect
       effect="bspline"
       id="path-effect2511-3-6"
       is_visible="true"
       lpeversion="1"
       weight="33.333333"
       steps="2"
       helper_size="0"
       apply_no_weight="true"
       apply_with_weight="true"
       only_selected="false" />
    <inkscape:path-effect
       effect="bspline"
       id="path-effect2511-3-62"
       is_visible="true"
       lpeversion="1"
       weight="33.333333"
       steps="2"
       helper_size="0"
       apply_no_weight="true"
       apply_with_weight="true"
       only_selected="false" />
    <inkscape:path-effect
       effect="bspline"
       id="path-effect2594-2"
       is_visible="true"
       lpeversion="1"
       weight="33.333333"
       steps="2"
       helper_size="0"
       apply_no_weight="true"
       apply_with_weight="true"
       only_selected="false" />
    <inkscape:path-effect
       effect="bspline"
       id="path-effect2594-23"
       is_visible="true"
       lpeversion="1"
       weight="33.333333"
       steps="2"
       helper_size="0"
       apply_no_weight="true"
       apply_with_weight="true"
       only_selected="false" />
    <inkscape:path-effect
       effect="bspline"
       id="path-effect2594-5"
       is_visible="true"
       lpeversion="1"
       weight="33.333333"
       steps="2"
       helper_size="0"
       apply_no_weight="true"
       apply_with_weight="true"
       only_selected="false" />
  </defs>
  <g
     inkscape:groupmode="layer"
     id="layer1"
     inkscape:label="water"
     style="display:inline" />
  <g
     inkscape:groupmode="layer"
     id="layer8"
     inkscape:label="duck" />
  <g
     inkscape:groupmode="layer"
     id="layer3"
     inkscape:label="duckBody"
     style="display:inline" />
  <g
     inkscape:groupmode="layer"
     id="layer4"
     inkscape:label="duckLeftWing"
     style="display:inline" />
  <g
     inkscape:groupmode="layer"
     id="layer5"
     inkscape:label="duckRightWing" />
  <g
     inkscape:groupmode="layer"
     id="layer2"
     inkscape:label="duckHead"
     style="fill:#ffd631;fill-opacity:1" />
  <g
     inkscape:groupmode="layer"
     id="layer6"
     inkscape:label="duckBeak" />
  <g
     inkscape:groupmode="layer"
     id="layer7"
     inkscape:label="duckEye" />
  <g
     id="g3440"
     transform="translate(2.99995,-16.741492)">
    <path
       style="display:inline;fill:#2eeeff;fill-opacity:1;stroke:#1b98ae;stroke-width:4.2;stroke-linecap:round;stroke-linejoin:round;stroke-dasharray:none;stroke-opacity:1"
       d="m 9.00005,111.24148 v 225 l 150,-75 v -225 l -150,75"
       id="path2328" />
    <path
       style="display:inline;fill:#20c9db;fill-opacity:1;stroke:#20aec3;stroke-width:4.2;stroke-linecap:round;stroke-linejoin:round;stroke-dasharray:none;stroke-opacity:1"
       d="m 159.00005,261.24148 210,45 v -225 l -210,-45 v 225"
       id="path2330"
       sodipodi:nodetypes="ccccc" />
    <path
       style="display:inline;fill:#009bb3;fill-opacity:1;stroke:#126d85;stroke-width:4.2;stroke-linecap:round;stroke-linejoin:round;stroke-dasharray:none;stroke-opacity:1"
       d="m 9.00005,336.24148 210,45 150,-75 -210,-45 -150,75"
       id="path2332"
       sodipodi:nodetypes="ccccc" />
    <path
       id="path2442-6"
       style="display:inline;fill:#ffb943;fill-opacity:1;stroke:#480400;stroke-width:4.2;stroke-linecap:round;stroke-linejoin:round;stroke-dasharray:none;stroke-opacity:1"
       d="m 181.50005,171.24148 a 123.75,78.75 0 0 0 -123.75,78.75 123.75,78.75 0 0 0 123.75,78.75 123.75,78.75 0 0 0 123.75,-78.75 123.75,78.75 0 0 0 -0.39844,-6.2959 c 3.71787,-21.18852 5.18003,-40.34448 -3.97705,-49.92187 -8.66762,-9.06547 -26.8456,-9.5528 -47.44922,-7.85303 a 123.75,78.75 0 0 0 -71.92529,-14.6792 z" />
    <path
       id="path2442-6-2"
       style="display:inline;fill:#fb9200;fill-opacity:1;stroke:none;stroke-width:4.2;stroke-linecap:round;stroke-linejoin:round;stroke-dasharray:none;stroke-opacity:1"
       d="m 63.48931,226.64334 a 123.75,78.75 0 0 0 -5.73926,23.34814 123.75,78.75 0 0 0 123.75,78.75 123.75,78.75 0 0 0 123.03809,-70.67871 123.75,78.75 0 0 1 -118.01075,55.40332 123.75,78.75 0 0 1 -123.75,-78.75 123.75,78.75 0 0 1 0.71192,-8.07275 z" />
    <path
       id="path2442-6-0"
       style="display:inline;fill:none;fill-opacity:1;stroke:#480400;stroke-width:4.2;stroke-linecap:round;stroke-linejoin:round;stroke-dasharray:none;stroke-opacity:1"
       d="m 181.50005,171.24148 a 123.75,78.75 0 0 0 -123.75,78.75 123.75,78.75 0 0 0 123.75,78.75 123.75,78.75 0 0 0 123.75,-78.75 123.75,78.75 0 0 0 -0.39844,-6.2959 c 3.71787,-21.18852 5.18003,-40.34448 -3.97705,-49.92187 -8.66762,-9.06547 -26.8456,-9.5528 -47.44922,-7.85303 a 123.75,78.75 0 0 0 -71.92529,-14.6792 z" />
    <path
       style="display:inline;fill:#ffb943;fill-opacity:1;stroke:#480400;stroke-width:4.2;stroke-linecap:round;stroke-linejoin:round;stroke-dasharray:none;stroke-opacity:1"
       d="m 222.75018,203.74104 c 19.99996,-22.49995 39.99996,-44.99995 48.74993,-41.24934 8.74996,3.75062 6.25001,33.75002 -6e-5,53.74978 -6.25007,19.99976 -16.24987,29.99956 -26.24987,39.99956"
       id="path2509"
       inkscape:path-effect="#path-effect2511-3"
       inkscape:original-d="m 222.75018,203.74104 c 20.00075,-22.49925 40.00075,-44.99925 60,-67.5 -2.4993,30.00135 -4.99925,60.00075 -7.5,90 -9.99945,10.00095 -19.99925,20.00075 -30,30" />
    <path
       id="path2509-3"
       style="display:inline;fill:#fb9200;fill-opacity:1;stroke:none;stroke-width:4.2;stroke-linecap:round;stroke-linejoin:round;stroke-dasharray:none;stroke-opacity:1"
       d="m 275.2163,182.06104 c -1.16258,6.97806 -2.79543,13.93413 -4.7622,20.06689 C 263.194,224.76623 251.61574,236.17987 240,247.5 l 3.33984,7.79297 c 9.99999,-9.99999 19.99994,-19.99928 26.25,-39.99902 3.15213,-10.08659 5.34413,-22.70937 5.62646,-33.23291 z" />
    <path
       style="display:inline;fill:none;fill-opacity:1;stroke:#480400;stroke-width:4.2;stroke-linecap:round;stroke-linejoin:round;stroke-dasharray:none;stroke-opacity:1"
       d="m 222.75018,203.74104 c 19.99996,-22.49995 39.99996,-44.99995 48.74993,-41.24934 8.74996,3.75062 6.25001,33.75002 -6e-5,53.74978 -6.25007,19.99976 -16.24987,29.99956 -26.24987,39.99956"
       id="path2509-0"
       inkscape:path-effect="#path-effect2511-3-6"
       inkscape:original-d="m 222.75018,203.74104 c 20.00075,-22.49925 40.00075,-44.99925 60,-67.5 -2.4993,30.00135 -4.99925,60.00075 -7.5,90 -9.99945,10.00095 -19.99925,20.00075 -30,30" />
    <ellipse
       style="fill:#ffb943;fill-opacity:1;stroke:#480400;stroke-width:4.2;stroke-linecap:round;stroke-linejoin:round;stroke-dasharray:none;stroke-opacity:1"
       id="path2387"
       cx="132.78143"
       cy="173.38272"
       rx="63.75"
       ry="60" />
    <path
       id="path2387-1"
       style="fill:#fb9200;fill-opacity:1;stroke:none;stroke-width:4.2;stroke-linecap:round;stroke-linejoin:round;stroke-dasharray:none;stroke-opacity:1"
       d="m 69.847354,182.49404 a 63.75,60 0 0 0 62.934076,50.88867 63.75,60 0 0 0 62.93408,-50.88867 71.25,67.5 0 0 1 -62.93408,35.88867 71.25,67.5 0 0 1 -62.934076,-35.88867 z" />
    <ellipse
       style="fill:none;fill-opacity:1;stroke:#480400;stroke-width:4.2;stroke-linecap:round;stroke-linejoin:round;stroke-dasharray:none;stroke-opacity:1"
       id="path2387-7"
       cx="132.78143"
       cy="173.38272"
       rx="63.75"
       ry="60" />
    <path
       style="fill:#ff7080;fill-opacity:1;stroke:#480400;stroke-width:4.2;stroke-linecap:round;stroke-linejoin:round;stroke-dasharray:none;stroke-opacity:1"
       d="m 83.646319,167.32763 c 5.903416,-2.86002 11.127279,-7.22724 15.453442,-6.46901 4.326159,0.75822 7.753739,6.64086 11.181669,12.52409 15.26394,6.19638 30.52675,12.3923 28.03672,18.11905 -2.49003,5.72675 -22.73208,10.98424 -47.694921,9.25175 -24.962846,-1.73249 -54.645191,-10.45491 -59.95035,-16.22697 -5.305159,-5.77206 12.932616,-8.46988 26.709781,-10.728 13.777164,-2.25812 20.360242,-3.61089 26.263659,-6.47091 z"
       id="path2592"
       inkscape:path-effect="#path-effect2594"
       inkscape:original-d="m 84.32576,168.83492 c 5.22441,-4.36679 10.44827,-8.73401 15.67189,-13.1019 3.42828,5.88382 10.28378,17.64969 10.28378,17.64969 15.26378,6.19676 30.52659,12.39269 45.78938,18.58814 -20.24253,5.25829 -40.48457,10.51579 -60.72737,15.7728 -29.683186,-8.72219 -59.365533,-17.4446 -89.048813,-26.16778 19.073184,-2.82077 37.002612,-7.60308 57.217365,-8.46388 8.080918,0.53598 14.447518,-1.87025 20.813768,-4.27707 z"
       sodipodi:nodetypes="czcccccc" />
    <path
       id="path2592-7"
       style="fill:#f9005a;fill-opacity:0.828653;stroke:none;stroke-width:4.2;stroke-linecap:round;stroke-linejoin:round;stroke-dasharray:none;stroke-opacity:1"
       d="m 31.442794,179.73198 c -1.67491,1.20871 -2.08707,2.60472 -0.57129,4.25391 5.30516,5.77206 34.98737,14.49505 59.950196,16.22754 24.96282,1.73249 45.20528,-3.52521 47.69531,-9.25195 0.62544,-1.43843 0.12773,-2.9058 -1.20556,-4.396 -9.28186,4.6367 -27.61372,7.79812 -48.93604,6.20361 -20.144896,-1.50645 -42.917586,-7.25686 -56.932616,-13.03711 z" />
    <path
       style="fill:none;fill-opacity:1;stroke:#480400;stroke-width:4.2;stroke-linecap:round;stroke-linejoin:round;stroke-dasharray:none;stroke-opacity:1"
       d="m 83.646319,167.32763 c 5.903416,-2.86002 11.127279,-7.22724 15.453442,-6.46901 4.326159,0.75822 7.753739,6.64086 11.181669,12.52409 15.26394,6.19638 30.52675,12.3923 28.03672,18.11905 -2.49003,5.72675 -22.73208,10.98424 -47.694922,9.25175 -24.962847,-1.73249 -54.645191,-10.45491 -59.950348,-16.22697 -5.305156,-5.77206 12.932611,-8.46988 26.709778,-10.728 13.777166,-2.25812 20.360244,-3.61089 26.263661,-6.47091 z"
       id="path2592-9"
       inkscape:path-effect="#path-effect2594-5"
       inkscape:original-d="m 84.32576,168.83492 c 5.22441,-4.36679 10.44827,-8.73401 15.67189,-13.1019 3.42828,5.88382 10.28378,17.64969 10.28378,17.64969 15.26378,6.19676 30.52659,12.39269 45.78938,18.58814 -20.24253,5.25829 -40.48457,10.51579 -60.72737,15.7728 -29.683188,-8.72219 -59.365535,-17.4446 -89.048815,-26.16778 19.07319,-2.82077 37.00261,-7.60308 57.217367,-8.46388 8.080918,0.53598 14.447518,-1.87025 20.813768,-4.27707 z"
       sodipodi:nodetypes="czcccccc" />
    <ellipse
       style="fill:#fb9200;fill-opacity:1;stroke:none;stroke-width:4.20001;stroke-linecap:round;stroke-linejoin:round;stroke-dasharray:none;stroke-opacity:1"
       id="path2684-9"
       cx="156.99413"
       cy="175.19801"
       rx="11.849189"
       ry="11.433258" />
    <ellipse
       style="fill:#2f0300;fill-opacity:1;stroke:none;stroke-width:4.20001;stroke-linecap:round;stroke-linejoin:round;stroke-dasharray:none;stroke-opacity:1"
       id="path2684"
       cx="156.67303"
       cy="173.78844"
       rx="11.25"
       ry="9.8404236" />
    <circle
       style="fill:#fbc892;fill-opacity:0.464482;stroke:none;stroke-width:4.2;stroke-linecap:round;stroke-linejoin:round;stroke-dasharray:none;stroke-opacity:1"
       id="path2686"
       cx="160.08458"
       cy="170.52603"
       r="3.75" />
    <path
       id="path1752"
       style="display:inline;fill:none;fill-opacity:1;stroke:#08415c;stroke-width:9;stroke-linecap:round;stroke-linejoin:round;stroke-dasharray:none;stroke-opacity:1"
       d="m 219.00005,156.24148 150,-75 m -360,30 150,-75 210,45 v 225 l -150,75 m -210,-270 v 225 l 210,45 v -225 l -210,-45"
       inkscape:label="cubeFrame"
       sodipodi:nodetypes="cccccccccccc" />
  </g>
</svg>
